<mxfile host="app.diagrams.net" agent="Mozilla/5.0 (Windows NT 10.0; Win64; x64; rv:128.0) Gecko/20100101 Firefox/128.0" version="27.1.4">
  <diagram name="Page-1" id="PkKd_JiGjUPgfaHdr4iB">
    <mxGraphModel dx="1426" dy="899" grid="1" gridSize="10" guides="1" tooltips="1" connect="1" arrows="1" fold="1" page="1" pageScale="1" pageWidth="850" pageHeight="1100" math="0" shadow="0">
      <root>
        <mxCell id="0" />
        <mxCell id="1" parent="0" />
        <mxCell id="DVuYbELzHZqkL_Al9vvK-1" value="Working Directory" style="rounded=1;whiteSpace=wrap;html=1;" parent="1" vertex="1">
          <mxGeometry x="40" y="40" width="240" height="80" as="geometry" />
        </mxCell>
        <mxCell id="DVuYbELzHZqkL_Al9vvK-2" value="&lt;div align=&quot;left&quot;&gt;.git (hidden)&amp;nbsp;&amp;nbsp;&amp;nbsp;&amp;nbsp;&amp;nbsp;&amp;nbsp;&amp;nbsp;&amp;nbsp;&amp;nbsp;&amp;nbsp;&amp;nbsp;&amp;nbsp;&amp;nbsp;&amp;nbsp;&amp;nbsp;&amp;nbsp;&amp;nbsp;&amp;nbsp;&amp;nbsp;&amp;nbsp;&amp;nbsp;&amp;nbsp;&amp;nbsp;&amp;nbsp;&amp;nbsp;&amp;nbsp;&amp;nbsp;&amp;nbsp;&amp;nbsp;&amp;nbsp;&amp;nbsp;&amp;nbsp;&amp;nbsp;&amp;nbsp;&amp;nbsp;&amp;nbsp;&amp;nbsp;&amp;nbsp; Repository&lt;br&gt;&lt;/div&gt;" style="rounded=1;whiteSpace=wrap;html=1;align=left;" parent="1" vertex="1">
          <mxGeometry x="360" y="40" width="410" height="40" as="geometry" />
        </mxCell>
        <mxCell id="DVuYbELzHZqkL_Al9vvK-3" value="Starging Area&lt;br&gt;(index File)" style="rounded=1;whiteSpace=wrap;html=1;" parent="1" vertex="1">
          <mxGeometry x="360" y="100" width="200" height="140" as="geometry" />
        </mxCell>
        <mxCell id="DVuYbELzHZqkL_Al9vvK-4" value="Commits&lt;br&gt;(Objects Folder)" style="rounded=1;whiteSpace=wrap;html=1;" parent="1" vertex="1">
          <mxGeometry x="570" y="100" width="200" height="140" as="geometry" />
        </mxCell>
        <mxCell id="DVuYbELzHZqkL_Al9vvK-7" value="Add" style="shape=singleArrow;whiteSpace=wrap;html=1;" parent="1" vertex="1">
          <mxGeometry x="280" y="280" width="90" height="80" as="geometry" />
        </mxCell>
        <mxCell id="DVuYbELzHZqkL_Al9vvK-8" value="" style="rounded=1;whiteSpace=wrap;html=1;" parent="1" vertex="1">
          <mxGeometry x="400" y="280" width="120" height="80" as="geometry" />
        </mxCell>
        <mxCell id="DVuYbELzHZqkL_Al9vvK-9" value="Commit" style="shape=singleArrow;whiteSpace=wrap;html=1;" parent="1" vertex="1">
          <mxGeometry x="560" y="280" width="90" height="80" as="geometry" />
        </mxCell>
        <mxCell id="DVuYbELzHZqkL_Al9vvK-10" value="" style="rounded=1;whiteSpace=wrap;html=1;" parent="1" vertex="1">
          <mxGeometry x="680" y="280" width="120" height="80" as="geometry" />
        </mxCell>
        <mxCell id="DVuYbELzHZqkL_Al9vvK-11" value="&lt;font style=&quot;font-size: 15px;&quot;&gt;Git = Tracking changes - NOT storing files again and again!&lt;/font&gt;" style="text;html=1;align=center;verticalAlign=middle;whiteSpace=wrap;rounded=0;" parent="1" vertex="1">
          <mxGeometry x="40" y="160" width="280" height="70" as="geometry" />
        </mxCell>
      </root>
    </mxGraphModel>
  </diagram>
</mxfile>
